# xmcd CD database file
#
# Track frame offsets:
#	150
#	17979
#	34982
#	54406
#	73422
#
# Disc length: 1169 seconds
#
# Revision: 0
# Processed by: cddbd v1.5.2PL0 Copyright (c) Steve Scherf et al.
# Submitted via: CDex 1.51
#
DISCID=46048f05
DTITLE=Trout Steak Revival - Trout Steak Revival
DYEAR=1900
DGENRE=Jazz
TTITLE0=Everybody knows my baby
TTITLE1=Bluesky Sunshine
TTITLE2=Bush League
TTITLE3=High Lonesome
TTITLE4=Paint the Town
EXTD=
EXTT0=
EXTT1=
EXTT2=
EXTT3=
EXTT4=
PLAYORDER=
